# xmcd
#
# Track frame offsets: 
#        150
#        18627
#        67121
#
# Disc length: 1133 seconds
#
# Revision: 0
# Processed by: cddbd v1.5.2PL0 Copyright (c) Steve Scherf et al.
# Submitted via: ExactAudioCopyFreeDBPlugin 1.0
#
DISCID=25046b03
DTITLE=KT Tunstall - Tour-Only Release (Promo)
DYEAR=1900
DGENRE=Rock
TTITLE0=Backlash and Vinegar
TTITLE1=Black Horse and The Cherry Tree (Live)
TTITLE2=Hard Girls (Live)
EXTD=
EXTT0=
EXTT1=
EXTT2=
PLAYORDER=
